<?xml version="1.0" encoding="UTF-8"?>
<svg width="16px" height="12px" viewBox="0 0 16 12" version="1.1" xmlns="http://www.w3.org/2000/svg" xmlns:xlink="http://www.w3.org/1999/xlink">
    <!-- Generator: Sketch 49.1 (51147) - http://www.bohemiancoding.com/sketch -->
    <title>email</title>
    <desc>Created with Sketch.</desc>
    <defs></defs>
    <g id="Webdesign" stroke="none" stroke-width="1" fill="none" fill-rule="evenodd">
        <g id="Group" transform="translate(-119.000000, -2.000000)" fill="#3B1AC3">
            <path d="M133.5,2.00002861 C133.916667,2.00002861 134.270833,2.14586175 134.5625,2.43752757 C134.854167,2.72919338 135,3.08335952 135,3.50002503 L135,12.5000036 C135,12.9166691 134.854167,13.2708352 134.5625,13.562501 C134.270833,13.8541669 133.916667,14 133.5,14 L120.5,14 C120.083333,14 119.729167,13.8541669 119.4375,13.562501 C119.145833,13.2708352 119,12.9166691 119,12.5000036 L119,3.50002503 C119,3.08335952 119.145833,2.72919338 119.4375,2.43752757 C119.729167,2.14586175 120.083333,2.00002861 120.5,2.00002861 L133.5,2.00002861 Z M133.499965,3.50002503 L120.499996,3.50002503 L120.499996,4.78127198 C121.229161,5.36460408 122.635408,6.46876796 124.718736,8.09376408 L124.999986,8.34376349 C125.416651,8.69792915 125.749984,8.94792855 125.999983,9.0937617 C126.395816,9.36459454 126.729148,9.50001073 126.999981,9.50001073 C127.270814,9.50001073 127.604146,9.36459454 127.999979,9.0937617 C128.249978,8.94792855 128.583311,8.69792915 128.999976,8.34376349 L129.281225,8.09376408 C131.364554,6.4896014 132.770801,5.38543705 133.499965,4.78127198 L133.499965,3.50002503 Z M120.499996,12.5000036 L133.499965,12.5000036 L133.499965,6.68751743 L129.874974,9.56251058 C129.354142,10.0000095 128.92706,10.3125088 128.593727,10.5000083 C128.031228,10.833341 127.49998,11.0000072 126.999981,11.0000072 C126.499982,11.0000072 125.958317,10.833341 125.374985,10.5000083 C125.062486,10.3125088 124.635403,10.0000095 124.093738,9.56251058 L120.499996,6.68751743 L120.499996,12.5000036 Z" id="email"></path>
        </g>
    </g>
</svg>