<?xml version="1.0" encoding="UTF-8"?>
<svg width="14px" height="14px" viewBox="0 0 14 14" version="1.1" xmlns="http://www.w3.org/2000/svg" xmlns:xlink="http://www.w3.org/1999/xlink">
    <!-- Generator: Sketch 49.1 (51147) - http://www.bohemiancoding.com/sketch -->
    <title>facebook</title>
    <desc>Created with Sketch.</desc>
    <defs></defs>
    <g id="Webdesign" stroke="none" stroke-width="1" fill="none" fill-rule="evenodd">
        <g id="Group" transform="translate(0.000000, -1.000000)" fill="#3B1AC3">
            <path d="M14,1.78127913 L14,14.2187495 C14,14.4270825 13.9270835,14.6093735 13.78125,14.7656232 C13.6354165,14.9218728 13.4479165,14.9999976 13.21875,14.9999976 L9.65625,14.9999976 L9.65625,9.56251058 L11.46875,9.56251058 L11.75,7.46876557 L9.65625,7.46876557 L9.65625,6.12501878 C9.65625,5.77085311 9.71875,5.52085371 9.84375,5.37502056 C10.0104165,5.18752101 10.2916665,5.09377123 10.6875,5.09377123 L11.8125,5.09377123 L11.8125,3.18752578 C11.375,3.14585937 10.8333335,3.12502593 10.1875,3.12502593 C9.375,3.12502593 8.71875,3.36460885 8.21875,3.84377421 C7.71875,4.32293958 7.46875,5.01043794 7.46875,5.9062693 L7.46875,7.46876557 L5.65625,7.46876557 L5.65625,9.56251058 L7.46875,9.56251058 L7.46875,14.9999976 L0.78125,14.9999976 C0.552083492,14.9999976 0.364583492,14.9218728 0.21875,14.7656232 C0.0729165077,14.6093735 0,14.4270825 0,14.2187495 L0,1.78127913 C0,1.55211317 0.0729165077,1.36461362 0.21875,1.21878047 C0.364583492,1.07294733 0.552083492,1.00003099 0.78125,1.00003099 L13.21875,1.00003099 C13.4270835,1.00003099 13.609375,1.07294733 13.765625,1.21878047 C13.921875,1.36461362 14,1.55211317 14,1.78127913 Z" id="facebook"></path>
        </g>
    </g>
</svg>