<?xml version="1.0" encoding="UTF-8"?>
<svg width="16px" height="14px" viewBox="0 0 16 14" version="1.1" xmlns="http://www.w3.org/2000/svg" xmlns:xlink="http://www.w3.org/1999/xlink">
    <!-- Generator: Sketch 49.1 (51147) - http://www.bohemiancoding.com/sketch -->
    <title>twitter</title>
    <desc>Created with Sketch.</desc>
    <defs></defs>
    <g id="Webdesign" stroke="none" stroke-width="1" fill="none" fill-rule="evenodd">
        <g id="Group" transform="translate(-39.000000, -1.000000)" fill="#3B1AC3">
            <path d="M53.34375,4.75002205 C53.3645835,4.83335535 53.375,4.96877153 53.375,5.15627109 C53.375,6.65626751 53.0104165,8.10418056 52.28125,9.50001073 C51.53125,10.9791737 50.4791665,12.1562544 49.125,13.0312523 C47.6458335,14.0104165 45.9479165,14.4999988 44.03125,14.4999988 C42.1979165,14.4999988 40.5208335,14.0104165 39,13.0312523 C39.2291665,13.0520858 39.4895835,13.0625022 39.78125,13.0625022 C41.3020835,13.0625022 42.6666665,12.5937534 43.875,11.6562556 C43.1458335,11.6562556 42.5052085,11.4427146 41.953125,11.0156321 C41.4010415,10.5885496 41.0208335,10.0520929 40.8125,9.40626095 C41.0208335,9.42709439 41.21875,9.43751088 41.40625,9.43751088 C41.6979165,9.43751088 41.9895835,9.40626095 42.28125,9.3437611 C41.53125,9.17709499 40.90625,8.79167893 40.40625,8.18751386 C39.90625,7.58334879 39.65625,6.89585043 39.65625,6.12501878 L39.65625,6.06251892 C40.1145835,6.33335177 40.6041665,6.47918444 41.125,6.50001788 C40.6875,6.18751863 40.3333335,5.79168608 40.0625,5.31252071 C39.7916665,4.83335535 39.65625,4.30731462 39.65625,3.73439948 C39.65625,3.16148433 39.8125,2.61461064 40.125,2.09377839 C40.9375,3.11460945 41.9322915,3.92710751 43.109375,4.53127258 C44.2864585,5.13543764 45.5416665,5.46877034 46.875,5.53127019 C46.8333335,5.28127079 46.8125,5.03127138 46.8125,4.78127198 C46.8125,4.19793988 46.9583335,3.65106618 47.25,3.14065089 C47.5416665,2.6302356 47.9375,2.22919457 48.4375,1.93752876 C48.9375,1.64586295 49.4791665,1.5000298 50.0625,1.5000298 C50.5416665,1.5000298 50.984375,1.59377958 51.390625,1.78127913 C51.796875,1.96877868 52.15625,2.21877809 52.46875,2.53127734 C53.21875,2.3854442 53.9166665,2.12502831 54.5625,1.75002921 C54.3125,2.52086086 53.8333335,3.12502593 53.125,3.56252488 C53.75,3.47919159 54.375,3.302109 55,3.03127615 C54.5416665,3.69794107 53.9895835,4.27085669 53.34375,4.75002205 Z" id="twitter"></path>
        </g>
    </g>
</svg>