<?xml version="1.0" encoding="UTF-8"?>
<svg width="14px" height="14px" viewBox="0 0 14 14" version="1.1" xmlns="http://www.w3.org/2000/svg" xmlns:xlink="http://www.w3.org/1999/xlink">
    <!-- Generator: Sketch 49.1 (51147) - http://www.bohemiancoding.com/sketch -->
    <title>whatsapp</title>
    <desc>Created with Sketch.</desc>
    <defs></defs>
    <g id="Webdesign" stroke="none" stroke-width="1" fill="none" fill-rule="evenodd">
        <g id="Group" transform="translate(-80.000000, -1.000000)" fill="#3B1AC3">
            <path d="M91.90625,3.03127615 C92.5729165,3.69794107 93.0885415,4.45314776 93.453125,5.29689575 C93.8177085,6.14064374 94,7.02085013 94,7.93751445 C94,9.18751147 93.6822915,10.3437587 93.046875,11.4062562 C92.4114585,12.4687537 91.5572915,13.3125016 90.484375,13.9375001 C89.4114585,14.5624987 88.25,14.8749979 87,14.8749979 C85.8125,14.8749979 84.7083335,14.5937486 83.6875,14.0312499 L80,14.9999976 L81,11.4062562 C80.375,10.3437587 80.0625,9.18751147 80.0625,7.93751445 C80.0625,6.68751743 80.375,5.53127019 81,4.46877272 C81.625,3.40627526 82.46875,2.56252727 83.53125,1.93752876 C84.59375,1.31253025 85.75,1.00003099 87,1.00003099 C87.9166665,1.00003099 88.796875,1.17711406 89.640625,1.53127973 C90.484375,1.88544539 91.2395835,2.3854442 91.90625,3.03127615 Z M86.9999833,13.7187507 C88.0416473,13.7187507 89.010395,13.4583348 89.9062264,12.9375025 C90.8020577,12.4166703 91.5155975,11.713547 92.0468463,10.8281326 C92.578095,9.94271817 92.8437194,8.97917848 92.8437194,7.93751445 C92.8437194,7.18751624 92.6874698,6.45835147 92.3749705,5.75001967 C92.0624712,5.04168787 91.6301808,4.41148135 91.0780986,3.85939918 C90.5260164,3.307317 89.9010179,2.88544301 89.2031031,2.59377719 C88.5051882,2.30211138 87.770815,2.15627824 86.9999833,2.15627824 C85.9583193,2.15627824 84.9947796,2.41669412 84.1093652,2.93752638 C83.2239508,3.45835863 82.5208275,4.16148195 81.9999952,5.04689635 C81.479163,5.93231074 81.2187471,6.89585043 81.2187471,7.93751445 C81.2187471,9.04167833 81.5208299,10.0625094 82.1249949,11.0000072 L82.2499946,11.2187566 L81.6562461,13.3437516 L83.8437408,12.7812529 L84.0624903,12.9062526 C84.9583217,13.4479178 85.9374858,13.7187507 86.9999833,13.7187507 Z M90.1562258,9.37501103 L90.2499756,9.43751088 C90.3958087,9.50001073 90.4791415,9.5520941 90.499975,9.59376051 C90.5208084,9.63542691 90.5260164,9.73959365 90.5155999,9.90625976 C90.5051834,10.0729259 90.4635166,10.2448005 90.3906002,10.4218835 C90.3176839,10.5989666 90.1510173,10.7760492 89.8906014,10.9531323 C89.6301855,11.1302153 89.4062276,11.2291731 89.218728,11.2500066 C88.9270622,11.291673 88.6458129,11.291673 88.37498,11.2500066 C88.0624808,11.1875067 87.6458153,11.0416736 87.124983,10.8125076 C86.0624855,10.3541752 85.0937379,9.50001073 84.2187399,8.25001371 L84.1562401,8.18751386 C83.6979077,7.54168191 83.4687417,6.94793332 83.4687417,6.4062681 C83.4687417,5.86460289 83.6562413,5.39585401 84.0312404,5.00002146 L84.0624903,4.96877153 C84.2083235,4.82293839 84.3645731,4.75002205 84.5312392,4.75002205 L84.9062383,4.75002205 C84.9895716,4.75002205 85.0572795,4.76564702 85.1093628,4.79689694 C85.1614462,4.82814687 85.2083211,4.90627168 85.2499875,5.03127138 L85.7812362,6.31251833 C85.8437361,6.43751803 85.8541526,6.54168429 85.8124861,6.62501758 C85.7083199,6.83335058 85.5729032,7.02085013 85.4062371,7.18751624 C85.3229038,7.27084954 85.2708209,7.33855739 85.2499875,7.39064076 C85.229154,7.44272413 85.2499875,7.5000155 85.3124873,7.56251535 C85.6041531,8.10418056 85.9479023,8.53126304 86.3437349,8.84376229 C86.6354007,9.07292825 87.0728996,9.33334462 87.6562317,9.62501043 C87.8228979,9.70834372 87.9478976,9.69792676 88.0312309,9.59376051 C88.3020637,9.28126125 88.4895633,9.05209529 88.5937295,8.90626214 C88.6353959,8.82292885 88.6874793,8.78126244 88.7499791,8.78126244 C88.812479,8.78126244 88.8853953,8.79167893 88.9687286,8.81251237 C89.1353947,8.87501222 89.5312273,9.06251177 90.1562258,9.37501103 Z" id="whatsapp"></path>
        </g>
    </g>
</svg>