<?xml version="1.0" standalone="no"?>
<!DOCTYPE svg PUBLIC "-//W3C//DTD SVG 20010904//EN"
 "http://www.w3.org/TR/2001/REC-SVG-20010904/DTD/svg10.dtd">
<svg version="1.0" xmlns="http://www.w3.org/2000/svg"
 width="1200.000000pt" height="1200.000000pt" viewBox="0 0 1200.000000 1200.000000"
 preserveAspectRatio="xMidYMid meet">
<metadata>
Created by potrace 1.11, written by Peter Selinger 2001-2013
</metadata>
<g transform="translate(0.000000,1200.000000) scale(0.100000,-0.100000)"
fill="#000000" stroke="none">
<path d="M1350 9750 l0 -150 168 0 c563 0 744 -121 1035 -698 52 -103 134
-277 183 -387 48 -110 701 -1698 1450 -3530 l1362 -3330 377 0 377 0 1125
2850 c618 1568 1160 2947 1203 3065 469 1290 666 1668 973 1864 162 104 439
166 741 166 l156 0 0 150 0 150 -1500 0 -1500 0 0 -149 0 -148 213 -6 c422
-11 721 -87 837 -214 124 -134 137 -312 49 -673 -85 -348 -169 -581 -1043
-2910 l-654 -1745 -77 0 -77 0 -904 2185 c-497 1202 -932 2266 -968 2365 -135
379 -179 545 -180 680 -2 139 30 203 126 251 97 49 156 56 531 61 l347 5 0
149 0 149 -2175 0 -2175 0 0 -150z"/>
</g>
</svg>
