<?xml version="1.0" encoding="UTF-8"?>
<svg width="15px" height="16px" viewBox="0 0 15 16" version="1.1" xmlns="http://www.w3.org/2000/svg" xmlns:xlink="http://www.w3.org/1999/xlink">
    <!-- Generator: Sketch 49 (51002) - http://www.bohemiancoding.com/sketch -->
    <title>icon__arrow-down</title>
    <desc>Created with Sketch.</desc>
    <defs></defs>
    <g id="Webdesign" stroke="none" stroke-width="1" fill="none" fill-rule="evenodd">
        <g id="Tablet-Copy-3" transform="translate(-168.000000, -26.000000)" fill="#4A20F5">
            <path d="M182.454907,33.5247247 C182.520314,33.611934 182.553018,33.7100442 182.553018,33.8190554 C182.553018,33.9280666 182.520314,34.0152759 182.454907,34.0806827 L175.619895,40.9483989 C175.532685,41.0138057 175.434575,41.0465091 175.325564,41.0465091 C175.216553,41.0465091 175.129343,41.0029048 175.063937,40.9156955 L168.19622,34.0806827 C168.130814,34.0152759 168.09811,33.9280666 168.09811,33.8190554 C168.09811,33.7100442 168.130814,33.611934 168.19622,33.5247247 L168.850289,32.8706565 C168.915695,32.8052497 169.002905,32.7725463 169.111916,32.7725463 C169.220927,32.7725463 169.319037,32.8052497 169.406247,32.8706565 L174.475275,37.9396851 L174.475275,26.7878222 C174.475275,26.678811 174.513429,26.586151 174.589737,26.5098432 C174.666045,26.4335354 174.758705,26.3953813 174.867716,26.3953813 L175.783412,26.3953813 C175.892423,26.3953813 175.985083,26.4335354 176.061391,26.5098432 C176.137698,26.586151 176.175853,26.678811 176.175853,26.7878222 L176.175853,37.9396851 L181.244881,32.8706565 C181.33209,32.8052497 181.430201,32.7725463 181.539212,32.7725463 C181.648223,32.7725463 181.735432,32.8052497 181.800839,32.8706565 L182.454907,33.5247247 Z" id="icon__arrow-down"></path>
        </g>
    </g>
</svg>