<?xml version="1.0" encoding="UTF-8"?>
<svg width="103px" height="71px" viewBox="0 0 103 71" version="1.1" xmlns="http://www.w3.org/2000/svg" xmlns:xlink="http://www.w3.org/1999/xlink">
    <g id="Webdesign" stroke="none" stroke-width="1" fill="none" fill-rule="evenodd">
        <g id="Tablet-Copy-4" transform="translate(-70.000000, -140.000000)" fill="#3B19C3">
            <path d="M82.3934426,167 L74.4262295,147 C72.9742489,143.47293 72.5107296,142.995223 70.8852459,142.909091 L70,142.909091 L70,142 L82.8360656,142 L82.8360656,142.909091 L81.5081967,142.909091 C79.4248927,142.915605 79.5407725,143.512739 80.6229508,146.545455 L85.9344262,159.727273 L86.3770492,159.727273 L90.3606557,148.818182 C92.055794,143.990446 92.248927,143.194268 89.0327869,142.909091 L88.147541,142.909091 L88.147541,142 L97,142 L97,142.909091 L96.1147541,142.909091 C93.7553648,143.194268 93.3690987,143.671975 91.2459016,149.727273 L84.6065574,167 L82.3934426,167 Z M111.571429,167 C109.801242,167 108.385093,165.728051 107.952381,163.487805 C106.142857,165.4197 104.490683,166.961456 102.071429,167 C99.9275362,166.961456 98,165.226981 98,163.04878 C98,160.023555 100.792961,158.211991 107.952381,156.463415 L107.952381,155.146341 C108.267081,152.584582 106.811594,150.541756 104.333333,150.756098 C102.720497,150.541756 102.091097,150.927195 102.071429,151.195122 C102.091097,151.582441 103.349896,152.584582 103.428571,153.829268 C103.349896,154.897216 102.248447,155.976445 100.714286,156.02439 C99.2981366,155.976445 98.1180124,155.244111 98,153.829268 C98.1180124,151.042827 103.585921,149 107.5,149 C112.043478,149 114.010352,150.888651 113.833333,155.146341 L113.380952,162.170732 C113.459627,163.569593 114.049689,164.147752 114.738095,164.365854 C115.465839,164.147752 116.095238,163.531049 116.547619,163.04878 L117,163.487805 C115.859213,164.802998 113.853002,167 111.571429,167 Z M105,164 C105.733333,164 106.366667,163.348837 106.6,162.6 L107,157 C103.933333,158.017442 103,159.401163 103,161.2 C103,162.982558 103.733333,164 105,164 Z M130.571429,167 C128.801242,167 127.385093,165.728051 126.952381,163.487805 C125.142857,165.4197 123.490683,166.961456 121.071429,167 C118.927536,166.961456 117,165.226981 117,163.04878 C117,160.023555 119.792961,158.211991 126.952381,156.463415 L126.952381,155.146341 C127.267081,152.584582 125.811594,150.541756 123.333333,150.756098 C121.720497,150.541756 121.091097,150.927195 121.071429,151.195122 C121.091097,151.582441 122.349896,152.584582 122.428571,153.829268 C122.349896,154.897216 121.248447,155.976445 119.714286,156.02439 C118.298137,155.976445 117.118012,155.244111 117,153.829268 C117.118012,151.042827 122.585921,149 126.5,149 C131.043478,149 133.010352,150.888651 132.833333,155.146341 L132.380952,162.170732 C132.459627,163.569593 133.049689,164.147752 133.738095,164.365854 C134.465839,164.147752 135.095238,163.531049 135.547619,163.04878 L136,163.487805 C134.859213,164.802998 132.853002,167 130.571429,167 Z M124,164 C124.733333,164 125.366667,163.348837 125.6,162.6 L126,157 C122.933333,158.017442 122,159.401163 122,161.2 C122,162.982558 122.733333,164 124,164 Z M136.434783,167 L136.434783,166.542373 L136.869565,166.084746 C138.091255,166.204713 138.319392,166.08542 138.173913,165.627119 L138.173913,145.949153 C138.319392,143.857143 138.053232,143.499264 136.869565,143.20339 L136,142.745763 L136,142.288136 L143.826087,140 L143.826087,165.627119 C143.870722,166.005891 144.174905,166.164948 145.565217,166.084746 L146,166.542373 L146,167 L136.434783,167 Z M154.322581,167 C152.044444,167 149.633333,166.576017 148,166.121951 L148,160.853659 L148.903226,161.292683 L150.258065,163.04878 C151.461111,165.188437 152.511111,166.190578 154.322581,166.121951 C156.477778,166.190578 157.605556,165.111349 157.483871,163.487805 C157.605556,161.642398 155.622222,160.948608 153.419355,159.97561 C150.488889,158.982869 148.077778,157.788009 148,154.707317 C148.077778,151.197002 150.877778,149 155.225806,149 C156.477778,149 158.072222,149.269807 159.290323,149.439024 L161.096774,149.439024 L161.096774,154.707317 L160.193548,154.707317 L157.032258,150.317073 C156.633333,150.117773 155.972222,149.847966 155.225806,149.878049 C153.366667,149.847966 152.316667,150.811563 152.516129,152.512195 C152.316667,154.126338 154.105556,154.781585 156.580645,155.585366 C159.122222,156.747323 162,157.865096 162,161.292683 C162,164.263383 159.627778,167 154.322581,167 Z M80.55,211 C77.0043103,211 74.637931,210.480799 72.45,209.631579 L72,202.333333 L73.35,202.333333 L75.15,206.894737 C76.6551724,208.883257 78.2456897,209.961598 81,210.087719 C84.0646552,209.961598 85.6163793,208.284178 85.5,205.526316 C85.6163793,202.373272 82.7068966,201.334869 79.2,200.052632 C75.6077586,198.778802 72.4267241,197.261137 72.45,192.754386 C72.4267241,188.274962 76.1508621,185 81.45,185 C83.4827586,185 85.5,185.55914 86.85,185.912281 L88.65,185.45614 L88.65,193.210526 L87.75,193.210526 L84.15,186.824561 C83.5991379,186.317972 82.7068966,185.998464 81,185.912281 C78.5172414,185.998464 76.8491379,187.556068 76.95,189.561404 C76.8491379,192.268817 79.4094828,193.147465 82.35,194.122807 C86.7025862,195.663594 90,197.420891 90,202.333333 C90,207.086022 86.1594828,211 80.55,211 Z M99.1818182,211 C95.6949602,211 93.9840849,209.134276 94.1818182,205.163265 L94.1818182,196.183673 L91,196.183673 L91.9090909,193.938776 L95.5454545,191.244898 L98.7272727,189 L99.6363636,189 L99.6363636,193.489796 L105.545455,193.489796 L105.090909,196.183673 L99.6363636,196.183673 L99.6363636,204.265306 C99.4748011,207.229682 100.509284,208.201413 102.818182,208.306122 C104.050398,208.201413 105.124668,207.696113 106,206.959184 L106,207.857143 C104.169761,209.600707 102.100796,211 99.1818182,211 Z M115.72973,211 C110.707657,211 107,207.415254 107,202.219512 C107,197.042373 111.259861,193 116.648649,193 C121.436195,193 123.842227,195.860169 124,198.707317 C123.842227,199.101695 123.802784,199.521186 123.540541,200.02439 C123.723898,199.864407 114.612529,199.75 112.972973,199.585366 C113.034803,200.016949 113.034803,200.627119 112.972973,200.902439 C113.074246,204.974576 115.204176,207.758475 118.486486,207.926829 C120.844548,207.758475 122.461717,206.728814 123.540541,204.853659 L124,204.853659 C122.61949,208.864407 119.858469,211 115.72973,211 Z M113,198 L118,198 C118.034183,195.462121 117.530764,193 115.916667,193 C114.474296,193 113.251709,194.742424 113,198 Z M126,211 L126.452055,210.538462 L126.90411,210.076923 C127.994076,210.207048 128.424171,210.088106 128.260274,209.615385 L128.260274,199 C128.424171,196.76652 128.111374,196.449339 126.90411,196.230769 L126,195.769231 L126,195.307692 L134.136986,193 L134.136986,196.692308 C136.048578,194.744493 138.39455,193 140.917808,193 C142.109005,193 143.125592,193.515419 144.082192,194.384615 C144.533175,194.982379 144.885071,195.656388 144.986301,196.692308 L145.438356,196.692308 C147.231043,194.665198 149.577014,193 152.219178,193 C153.330569,193 154.347156,193.515419 155.383562,194.384615 C156.184834,195.378855 156.575829,197.202643 156.739726,200.384615 L156.739726,209.615385 C156.575829,209.889868 156.654028,210.048458 158.547945,210.076923 L159,210.538462 L159,211 L149.054795,211 L149.054795,210.538462 L149.506849,210.076923 C150.945498,210.207048 150.906398,209.929515 150.863014,209.615385 L150.863014,200.384615 C150.906398,197.400881 149.694313,196.60793 147.69863,196.692308 C146.722749,196.60793 145.667062,197.004405 145.438356,197.615385 L145.438356,209.615385 C145.354265,210.008811 145.510664,210.088106 146.794521,210.076923 L147.246575,210.538462 L147.69863,211 L137.753425,211 L137.753425,210.538462 L138.205479,210.076923 C139.528436,210.207048 139.684834,209.929515 139.561644,209.615385 L139.561644,200.384615 C139.684834,197.400881 138.433649,196.60793 136.39726,196.692308 C135.540284,196.60793 134.758294,196.964758 134.136986,197.153846 L134.136986,209.615385 C134.093602,210.008811 134.2109,210.167401 135.493151,210.076923 L136.39726,210.538462 L136.39726,211 L126,211 Z M166.181818,211 C162.69496,211 160.984085,209.134276 161.181818,205.163265 L161.181818,196.183673 L158,196.183673 L158.909091,193.938776 L162.545455,191.244898 L165.727273,189 L166.636364,189 L166.636364,193.489796 L172.545455,193.489796 L172.090909,196.183673 L166.636364,196.183673 L166.636364,204.265306 C166.474801,207.229682 167.509284,208.201413 169.818182,208.306122 C171.050398,208.201413 172.124668,207.696113 173,206.959184 L173,207.857143 C171.169761,209.600707 169.100796,211 166.181818,211 Z" id="vaals-stemt_logo"></path>
        </g>
    </g>
</svg>